<?xml version="1.0" standalone="no"?><!DOCTYPE svg PUBLIC "-//W3C//DTD SVG 1.1//EN" "http://www.w3.org/Graphics/SVG/1.1/DTD/svg11.dtd"><svg t="1534584840450" class="icon" style="" viewBox="0 0 1024 1024" version="1.1" xmlns="http://www.w3.org/2000/svg" p-id="4891" xmlns:xlink="http://www.w3.org/1999/xlink" width="32" height="32"><defs><style type="text/css"></style></defs><path d="M794.282 513.617c0 12.796-4.882 25.592-14.645 35.355l-460.383 460.383c-19.526 19.525-51.185 19.525-70.711 0-19.526-19.526-19.526-51.185 0-70.711l460.383-460.383c19.526-19.527 51.185-19.527 70.711 0 9.763 9.764 14.645 22.56 14.645 35.356z" fill="#cdcdcd" p-id="4892"></path><path d="M794.282 513.617c0 12.796-4.882 25.592-14.645 35.355-19.526 19.525-51.185 19.525-70.711 0L248.544 88.588c-19.526-19.527-19.526-51.186 0-70.711 19.526-19.526 51.185-19.526 70.711 0l460.383 460.384c9.762 9.764 14.644 22.56 14.644 35.356z" fill="#cdcdcd" p-id="4893"></path></svg>